<mxfile host="app.diagrams.net" agent="Mozilla/5.0 (Windows NT 10.0; Win64; x64; rv:136.0) Gecko/20100101 Firefox/136.0" version="26.1.3">
  <diagram name="Page-1" id="lOMLt_POMIq39Y3G6Z9P">
    <mxGraphModel dx="1674" dy="717" grid="1" gridSize="10" guides="1" tooltips="1" connect="1" arrows="1" fold="1" page="1" pageScale="1" pageWidth="850" pageHeight="1100" math="0" shadow="0">
      <root>
        <mxCell id="0" />
        <mxCell id="1" parent="0" />
        <mxCell id="I5x2yZ8Cwxs2vXnTlp7P-1" value="" style="rounded=1;whiteSpace=wrap;html=1;" parent="1" vertex="1">
          <mxGeometry x="250" y="50" width="860" height="500" as="geometry" />
        </mxCell>
        <mxCell id="I5x2yZ8Cwxs2vXnTlp7P-2" value="Gold Layer" style="swimlane;whiteSpace=wrap;html=1;fillColor=light-dark(#FFD700,var(--ge-dark-color, #121212));" parent="1" vertex="1">
          <mxGeometry x="920" y="140" width="140" height="369" as="geometry" />
        </mxCell>
        <mxCell id="I5x2yZ8Cwxs2vXnTlp7P-3" value="" style="group" parent="1" vertex="1" connectable="0">
          <mxGeometry x="340" y="92.5" width="920" height="549" as="geometry" />
        </mxCell>
        <mxCell id="I5x2yZ8Cwxs2vXnTlp7P-4" value="" style="group;movable=1;resizable=1;rotatable=1;deletable=1;editable=1;locked=0;connectable=1;" parent="I5x2yZ8Cwxs2vXnTlp7P-3" vertex="1" connectable="0">
          <mxGeometry x="-29" y="19.5" width="220" height="410.5" as="geometry" />
        </mxCell>
        <mxCell id="I5x2yZ8Cwxs2vXnTlp7P-5" value="" style="endArrow=none;dashed=1;html=1;dashPattern=1 3;strokeWidth=2;rounded=0;" parent="I5x2yZ8Cwxs2vXnTlp7P-4" edge="1">
          <mxGeometry width="50" height="50" relative="1" as="geometry">
            <mxPoint x="-1" y="410.5" as="sourcePoint" />
            <mxPoint x="-1" as="targetPoint" />
          </mxGeometry>
        </mxCell>
        <mxCell id="I5x2yZ8Cwxs2vXnTlp7P-6" value="" style="endArrow=none;dashed=1;html=1;dashPattern=1 3;strokeWidth=2;rounded=0;movable=1;resizable=1;rotatable=1;deletable=1;editable=1;locked=0;connectable=1;exitX=0.445;exitY=0;exitDx=0;exitDy=0;exitPerimeter=0;" parent="I5x2yZ8Cwxs2vXnTlp7P-4" source="I5x2yZ8Cwxs2vXnTlp7P-4" edge="1">
          <mxGeometry width="50" height="50" relative="1" as="geometry">
            <mxPoint x="71.89542483660131" as="sourcePoint" />
            <mxPoint x="143.79084967320262" as="targetPoint" />
          </mxGeometry>
        </mxCell>
        <mxCell id="I5x2yZ8Cwxs2vXnTlp7P-7" value="" style="endArrow=none;dashed=1;html=1;dashPattern=1 3;strokeWidth=2;rounded=0;" parent="I5x2yZ8Cwxs2vXnTlp7P-4" edge="1">
          <mxGeometry width="50" height="50" relative="1" as="geometry">
            <mxPoint x="143.79084967320262" y="410.5" as="sourcePoint" />
            <mxPoint x="143.79084967320262" as="targetPoint" />
          </mxGeometry>
        </mxCell>
        <mxCell id="I5x2yZ8Cwxs2vXnTlp7P-8" value="" style="endArrow=none;dashed=1;html=1;dashPattern=1 3;strokeWidth=2;rounded=0;" parent="I5x2yZ8Cwxs2vXnTlp7P-4" edge="1">
          <mxGeometry width="50" height="50" relative="1" as="geometry">
            <mxPoint y="410.5" as="sourcePoint" />
            <mxPoint x="143.79084967320262" y="410.5" as="targetPoint" />
          </mxGeometry>
        </mxCell>
        <mxCell id="I5x2yZ8Cwxs2vXnTlp7P-9" value="Source" style="text;strokeColor=none;fillColor=none;html=1;fontSize=24;fontStyle=1;verticalAlign=middle;align=center;" parent="I5x2yZ8Cwxs2vXnTlp7P-4" vertex="1">
          <mxGeometry x="22.47058823529412" y="-14.99903846153846" width="50.32679738562091" height="23.68269230769231" as="geometry" />
        </mxCell>
        <mxCell id="I5x2yZ8Cwxs2vXnTlp7P-53" value="" style="image;aspect=fixed;html=1;points=[];align=center;fontSize=12;image=img/lib/azure2/general/Folder_Blank.svg;" parent="I5x2yZ8Cwxs2vXnTlp7P-4" vertex="1">
          <mxGeometry x="37.58" y="76.73" width="59" height="47.89" as="geometry" />
        </mxCell>
        <mxCell id="I5x2yZ8Cwxs2vXnTlp7P-54" value="" style="shape=image;html=1;verticalAlign=top;verticalLabelPosition=bottom;labelBackgroundColor=#ffffff;imageAspect=0;aspect=fixed;image=https://cdn2.iconfinder.com/data/icons/simple-files/128/csv1.png" parent="I5x2yZ8Cwxs2vXnTlp7P-4" vertex="1">
          <mxGeometry x="53.03" y="86.62642585551332" width="28.095057034220535" height="28.095057034220535" as="geometry" />
        </mxCell>
        <mxCell id="I5x2yZ8Cwxs2vXnTlp7P-57" value="CRM" style="text;html=1;align=center;verticalAlign=middle;whiteSpace=wrap;rounded=0;" parent="I5x2yZ8Cwxs2vXnTlp7P-4" vertex="1">
          <mxGeometry x="39" y="121.72148288973385" width="60" height="23.412547528517113" as="geometry" />
        </mxCell>
        <mxCell id="I5x2yZ8Cwxs2vXnTlp7P-20" value="" style="group" parent="I5x2yZ8Cwxs2vXnTlp7P-3" vertex="1" connectable="0">
          <mxGeometry x="160" width="570" height="440" as="geometry" />
        </mxCell>
        <mxCell id="I5x2yZ8Cwxs2vXnTlp7P-21" value="" style="group" parent="I5x2yZ8Cwxs2vXnTlp7P-20" vertex="1" connectable="0">
          <mxGeometry y="18.029143897996356" width="570" height="423.9708561020036" as="geometry" />
        </mxCell>
        <mxCell id="I5x2yZ8Cwxs2vXnTlp7P-22" value="" style="endArrow=none;dashed=1;html=1;dashPattern=1 3;strokeWidth=2;rounded=0;" parent="I5x2yZ8Cwxs2vXnTlp7P-21" edge="1">
          <mxGeometry width="50" height="50" relative="1" as="geometry">
            <mxPoint x="338.4375" as="sourcePoint" />
            <mxPoint x="570" as="targetPoint" />
          </mxGeometry>
        </mxCell>
        <mxCell id="I5x2yZ8Cwxs2vXnTlp7P-23" value="" style="endArrow=none;dashed=1;html=1;dashPattern=1 3;strokeWidth=2;rounded=0;" parent="I5x2yZ8Cwxs2vXnTlp7P-21" edge="1">
          <mxGeometry width="50" height="50" relative="1" as="geometry">
            <mxPoint x="570" y="416.75774134790527" as="sourcePoint" />
            <mxPoint x="570" as="targetPoint" />
          </mxGeometry>
        </mxCell>
        <mxCell id="I5x2yZ8Cwxs2vXnTlp7P-24" value="" style="endArrow=none;dashed=1;html=1;dashPattern=1 3;strokeWidth=2;rounded=0;" parent="I5x2yZ8Cwxs2vXnTlp7P-21" edge="1">
          <mxGeometry width="50" height="50" relative="1" as="geometry">
            <mxPoint y="416.75774134790527" as="sourcePoint" />
            <mxPoint x="570" y="416.75774134790527" as="targetPoint" />
          </mxGeometry>
        </mxCell>
        <mxCell id="I5x2yZ8Cwxs2vXnTlp7P-25" value="" style="endArrow=none;dashed=1;html=1;dashPattern=1 3;strokeWidth=2;rounded=0;" parent="I5x2yZ8Cwxs2vXnTlp7P-21" edge="1">
          <mxGeometry width="50" height="50" relative="1" as="geometry">
            <mxPoint y="416.75774134790527" as="sourcePoint" />
            <mxPoint as="targetPoint" />
          </mxGeometry>
        </mxCell>
        <mxCell id="I5x2yZ8Cwxs2vXnTlp7P-26" value="Bronze Layer" style="swimlane;whiteSpace=wrap;html=1;fillColor=light-dark(#CD7F32,var(--ge-dark-color, #121212));" parent="I5x2yZ8Cwxs2vXnTlp7P-21" vertex="1">
          <mxGeometry x="20" y="24.04" width="140" height="375.96" as="geometry" />
        </mxCell>
        <mxCell id="I5x2yZ8Cwxs2vXnTlp7P-27" value="" style="html=1;verticalLabelPosition=bottom;align=center;labelBackgroundColor=#ffffff;verticalAlign=top;strokeWidth=2;strokeColor=#CD7F32;shadow=0;dashed=0;shape=mxgraph.ios7.icons.data;fillColor=default;" parent="I5x2yZ8Cwxs2vXnTlp7P-26" vertex="1">
          <mxGeometry x="38" y="37.26775956284153" width="64" height="58.907103825136616" as="geometry" />
        </mxCell>
        <mxCell id="I5x2yZ8Cwxs2vXnTlp7P-28" value="&lt;b&gt;Raw Data&lt;/b&gt;" style="text;html=1;align=center;verticalAlign=middle;whiteSpace=wrap;rounded=0;" parent="I5x2yZ8Cwxs2vXnTlp7P-26" vertex="1">
          <mxGeometry x="40" y="92.96903460837888" width="60" height="24.043715846994537" as="geometry" />
        </mxCell>
        <mxCell id="I5x2yZ8Cwxs2vXnTlp7P-29" value="" style="endArrow=none;html=1;rounded=0;" parent="I5x2yZ8Cwxs2vXnTlp7P-26" edge="1">
          <mxGeometry width="50" height="50" relative="1" as="geometry">
            <mxPoint x="20" y="125.4280510018215" as="sourcePoint" />
            <mxPoint x="120" y="125.4280510018215" as="targetPoint" />
          </mxGeometry>
        </mxCell>
        <mxCell id="I5x2yZ8Cwxs2vXnTlp7P-30" value="&lt;div align=&quot;left&quot;&gt;&lt;b&gt;Object Type&lt;/b&gt;:Tables&lt;/div&gt;&lt;div align=&quot;left&quot;&gt;&lt;br&gt;&lt;/div&gt;&lt;div align=&quot;left&quot;&gt;&lt;b&gt;Load : &lt;br&gt;&lt;/b&gt;&lt;/div&gt;&lt;div align=&quot;left&quot;&gt;&lt;span style=&quot;white-space: pre;&quot;&gt;&#x9;&lt;/span&gt;- Batch Processing&lt;/div&gt;&lt;div align=&quot;left&quot;&gt;&lt;span style=&quot;white-space: pre;&quot;&gt;&#x9;&lt;/span&gt;- Full load&lt;/div&gt;&lt;div align=&quot;left&quot;&gt;&lt;span style=&quot;white-space: pre;&quot;&gt;&#x9;&lt;/span&gt;- Truncate &amp;amp; insert&lt;/div&gt;&lt;div align=&quot;left&quot;&gt;&lt;br&gt;&lt;/div&gt;&lt;div align=&quot;left&quot;&gt;No &lt;b&gt;Transformations&lt;/b&gt;&lt;/div&gt;&lt;div align=&quot;left&quot;&gt;&lt;b&gt;&lt;br&gt;&lt;/b&gt;&lt;/div&gt;&lt;div align=&quot;left&quot;&gt;&lt;b&gt;Data Model :&lt;/b&gt;None (as-is)&lt;/div&gt;&lt;div align=&quot;left&quot;&gt;&lt;b&gt;&lt;br&gt;&lt;/b&gt;&lt;/div&gt;" style="text;html=1;align=left;verticalAlign=middle;whiteSpace=wrap;rounded=0;" parent="I5x2yZ8Cwxs2vXnTlp7P-26" vertex="1">
          <mxGeometry y="159.24772313296904" width="140" height="137.04918032786887" as="geometry" />
        </mxCell>
        <mxCell id="I5x2yZ8Cwxs2vXnTlp7P-31" value="" style="shape=flexArrow;endArrow=classic;html=1;rounded=0;" parent="I5x2yZ8Cwxs2vXnTlp7P-21" edge="1">
          <mxGeometry width="50" height="50" relative="1" as="geometry">
            <mxPoint x="159.99666666666667" y="188.51074681238615" as="sourcePoint" />
            <mxPoint x="223.32999999999998" y="188.51074681238615" as="targetPoint" />
          </mxGeometry>
        </mxCell>
        <mxCell id="I5x2yZ8Cwxs2vXnTlp7P-32" value="Silver Layer" style="swimlane;whiteSpace=wrap;html=1;fillColor=light-dark(#C0C0C0,var(--ge-dark-color, #121212));" parent="I5x2yZ8Cwxs2vXnTlp7P-21" vertex="1">
          <mxGeometry x="221" y="24.043715846994534" width="140" height="380" as="geometry" />
        </mxCell>
        <mxCell id="I5x2yZ8Cwxs2vXnTlp7P-33" value="" style="html=1;verticalLabelPosition=bottom;align=center;labelBackgroundColor=#ffffff;verticalAlign=top;strokeWidth=2;strokeColor=#C0C0C0;shadow=0;dashed=0;shape=mxgraph.ios7.icons.data;" parent="I5x2yZ8Cwxs2vXnTlp7P-32" vertex="1">
          <mxGeometry x="37.5" y="37.267759562841526" width="64" height="58.90710382513661" as="geometry" />
        </mxCell>
        <mxCell id="I5x2yZ8Cwxs2vXnTlp7P-34" value="&lt;b&gt;Cleansed Standardized Data&lt;/b&gt;" style="text;html=1;align=center;verticalAlign=middle;whiteSpace=wrap;rounded=0;" parent="I5x2yZ8Cwxs2vXnTlp7P-32" vertex="1">
          <mxGeometry y="96.97632058287796" width="130" height="23.242258652094716" as="geometry" />
        </mxCell>
        <mxCell id="I5x2yZ8Cwxs2vXnTlp7P-35" value="" style="endArrow=none;html=1;rounded=0;" parent="I5x2yZ8Cwxs2vXnTlp7P-32" edge="1">
          <mxGeometry width="50" height="50" relative="1" as="geometry">
            <mxPoint x="20" y="125.42805100182149" as="sourcePoint" />
            <mxPoint x="120" y="125.42805100182149" as="targetPoint" />
          </mxGeometry>
        </mxCell>
        <mxCell id="I5x2yZ8Cwxs2vXnTlp7P-36" value="&lt;div align=&quot;left&quot;&gt;&lt;b&gt;Object Type&lt;/b&gt;:Tables&lt;/div&gt;&lt;div align=&quot;left&quot;&gt;&lt;b&gt;Load : &lt;br&gt;&lt;/b&gt;&lt;/div&gt;&lt;div align=&quot;left&quot;&gt;&lt;span style=&quot;white-space: pre;&quot;&gt;&#x9;&lt;/span&gt;- Batch Processing&lt;/div&gt;&lt;div align=&quot;left&quot;&gt;&lt;span style=&quot;white-space: pre;&quot;&gt;&#x9;&lt;/span&gt;- Full load&lt;/div&gt;&lt;div align=&quot;left&quot;&gt;&lt;span style=&quot;white-space: pre;&quot;&gt;&#x9;&lt;/span&gt;- Truncate &amp;amp; insert&lt;/div&gt;&lt;div align=&quot;left&quot;&gt;&lt;b&gt;Transformations&lt;/b&gt;&lt;/div&gt;&lt;div align=&quot;left&quot;&gt;&lt;b&gt;&lt;span style=&quot;white-space: pre;&quot;&gt;&#x9;&lt;/span&gt;&lt;/b&gt;- Data Cleansing&lt;/div&gt;&lt;div align=&quot;left&quot;&gt;&lt;span style=&quot;white-space: pre;&quot;&gt;&#x9;&lt;/span&gt;- Data Standardization&lt;/div&gt;&lt;div align=&quot;left&quot;&gt;&lt;span style=&quot;white-space: pre;&quot;&gt;&#x9;&lt;/span&gt;- Data Normalization&lt;/div&gt;&lt;div align=&quot;left&quot;&gt;&lt;span style=&quot;white-space: pre;&quot;&gt;&#x9;&lt;/span&gt;- Derived Columns&lt;/div&gt;&lt;div align=&quot;left&quot;&gt;&lt;span style=&quot;white-space: pre;&quot;&gt;&#x9;&lt;/span&gt;- Data enrichment&lt;/div&gt;&lt;div align=&quot;left&quot;&gt;&lt;b&gt;Data Model :&lt;/b&gt;None (as-is)&lt;/div&gt;&lt;div align=&quot;left&quot;&gt;&lt;b&gt;&lt;br&gt;&lt;/b&gt;&lt;/div&gt;" style="text;html=1;align=left;verticalAlign=middle;whiteSpace=wrap;rounded=0;" parent="I5x2yZ8Cwxs2vXnTlp7P-32" vertex="1">
          <mxGeometry y="119.25" width="140" height="243.75" as="geometry" />
        </mxCell>
        <mxCell id="I5x2yZ8Cwxs2vXnTlp7P-37" value="" style="shape=flexArrow;endArrow=classic;html=1;rounded=0;" parent="I5x2yZ8Cwxs2vXnTlp7P-21" edge="1">
          <mxGeometry width="50" height="50" relative="1" as="geometry">
            <mxPoint x="360" y="188.7431693989071" as="sourcePoint" />
            <mxPoint x="420" y="188.7431693989071" as="targetPoint" />
          </mxGeometry>
        </mxCell>
        <mxCell id="I5x2yZ8Cwxs2vXnTlp7P-42" value="" style="html=1;verticalLabelPosition=bottom;align=center;labelBackgroundColor=#ffffff;verticalAlign=top;strokeWidth=2;strokeColor=#FFD700;shadow=0;dashed=0;shape=mxgraph.ios7.icons.data;" parent="I5x2yZ8Cwxs2vXnTlp7P-21" vertex="1">
          <mxGeometry x="458" y="62.11293260473588" width="64" height="58.90710382513661" as="geometry" />
        </mxCell>
        <mxCell id="I5x2yZ8Cwxs2vXnTlp7P-43" value="&lt;b&gt;Business Ready Data&lt;/b&gt;" style="text;html=1;align=center;verticalAlign=middle;whiteSpace=wrap;rounded=0;" parent="I5x2yZ8Cwxs2vXnTlp7P-21" vertex="1">
          <mxGeometry x="425" y="121.02003642987249" width="130" height="23.242258652094716" as="geometry" />
        </mxCell>
        <mxCell id="I5x2yZ8Cwxs2vXnTlp7P-44" value="" style="endArrow=none;html=1;rounded=0;" parent="I5x2yZ8Cwxs2vXnTlp7P-21" edge="1">
          <mxGeometry width="50" height="50" relative="1" as="geometry">
            <mxPoint x="440" y="148.6703096539162" as="sourcePoint" />
            <mxPoint x="540" y="148.6703096539162" as="targetPoint" />
          </mxGeometry>
        </mxCell>
        <mxCell id="I5x2yZ8Cwxs2vXnTlp7P-45" value="&lt;div align=&quot;left&quot;&gt;&lt;b&gt;Object Type&lt;/b&gt;:Views&lt;/div&gt;&lt;div align=&quot;left&quot;&gt;&lt;br&gt;&lt;/div&gt;&lt;div align=&quot;left&quot;&gt;No&lt;b&gt; Load&lt;/b&gt;&lt;/div&gt;&lt;div align=&quot;left&quot;&gt;&lt;b&gt;&amp;nbsp; &lt;br&gt;&lt;/b&gt;&lt;/div&gt;&lt;div align=&quot;left&quot;&gt;&lt;b&gt;Transformations:&lt;/b&gt;&lt;/div&gt;&lt;div align=&quot;left&quot;&gt;&lt;b&gt;&lt;span style=&quot;white-space: pre;&quot;&gt;&#x9;&lt;/span&gt;&lt;/b&gt;- Data integrations&lt;/div&gt;&lt;div align=&quot;left&quot;&gt;&lt;span style=&quot;white-space: pre;&quot;&gt;&#x9;&lt;/span&gt;- Aggregations&lt;/div&gt;&lt;div align=&quot;left&quot;&gt;&lt;span style=&quot;white-space: pre;&quot;&gt;&#x9;&lt;/span&gt;- Business logic&lt;/div&gt;&lt;div align=&quot;left&quot;&gt;&lt;b&gt;&lt;br&gt;&lt;/b&gt;&lt;/div&gt;&lt;div align=&quot;left&quot;&gt;&lt;b&gt;Data Model :&lt;/b&gt;&lt;/div&gt;&lt;div align=&quot;left&quot;&gt;&lt;span style=&quot;white-space: pre;&quot;&gt;&#x9;&lt;/span&gt;- Star Schema &lt;br&gt;&lt;/div&gt;&lt;div align=&quot;left&quot;&gt;&lt;span style=&quot;white-space: pre;&quot;&gt;&#x9;&lt;/span&gt;- Flat table&lt;/div&gt;&lt;div align=&quot;left&quot;&gt;&lt;span style=&quot;white-space: pre;&quot;&gt;&#x9;&lt;/span&gt;- Aggregated table&lt;/div&gt;&lt;div align=&quot;left&quot;&gt;&lt;b&gt;&lt;br&gt;&lt;/b&gt;&lt;/div&gt;" style="text;html=1;align=left;verticalAlign=middle;whiteSpace=wrap;rounded=0;" parent="I5x2yZ8Cwxs2vXnTlp7P-21" vertex="1">
          <mxGeometry x="420" y="187.30601092896174" width="140" height="145.06375227686704" as="geometry" />
        </mxCell>
        <mxCell id="I5x2yZ8Cwxs2vXnTlp7P-46" value="" style="shape=flexArrow;endArrow=classic;html=1;rounded=0;" parent="I5x2yZ8Cwxs2vXnTlp7P-21" edge="1">
          <mxGeometry width="50" height="50" relative="1" as="geometry">
            <mxPoint x="-43.33333333333334" y="188.51074681238617" as="sourcePoint" />
            <mxPoint x="19.99999999999997" y="188.51074681238617" as="targetPoint" />
          </mxGeometry>
        </mxCell>
        <mxCell id="I5x2yZ8Cwxs2vXnTlp7P-66" value="" style="shape=image;verticalLabelPosition=bottom;labelBackgroundColor=default;verticalAlign=top;aspect=fixed;imageAspect=0;image=data:image/webp,UklGRlgFAABXRUJQVlA4TEwFAAAvK8FKEEdAEEBS48ywv9YaBtlG6h3M+ds8zhtkG6nncDDnD/ZPkG0zf6lvZA+g2/80SrkruuFVAh1t/+O2EazNLEXSBxBlHWA9wHoAVZLLZGYIssyqpORsfHxuh8T/9/8BcJdHEf2HaNtKUOmIy0U2DKaZ2OsHzDuV7v5z95+7//w+xPeqTUicf9jXaDhX9i0lPA9vSSTU1naEdtlsGwefbJd2TLts9hrJsb6oKW0/JXGULPnudDCKemcrWdnacfA01p0Smn+PwfPBSqIb9TGptRUFz1IKnkrklihyVBVWTi3ekVFVNJYi3y3AJHggYWR7iWLuVhpobJSAIlqITzlbVKAc1/SN0sIzFn9dsDu4WTDnSbXUKIbEIts7r0yWEimtVhq0D0lH52nqYpGmTBoY+6IrJqSj6Ruuo1wMjk1UlyshHf2F4yibUi+VH32Zpk7ylM8nBbeulH6YCWQeOCuwLe5YEiaLlWBULxViNUROWSpQWrWUgNUA2f26DVeyUaWBD4BVf6iOyhirFOg+TALCMV8hlGo5Aw+U0NilGJ+UtNFytmqR1ymRYCq1iH6ZWCi1WDEyjobGctMkGkzFJYmHkkpr4uETV4+IM1cPGp8VJgR2IxYfmDXqCKFYDzW44oj1kEIThL7rt3mjQPDOiZAGXlRl7l9sHMG7NYMyAD13NmgII3m3J/DJv9Wl0KIRzEzwbqjn7L8mE9jD5AIrGA8VmhlIoEBZplIa6il916RimoPkIisUZcVrTaxZyqQicBqB6CoupiHW5N4YqDEW2sqveaTeWOmpkH1gpKDohZpinrlVOmNjkIKgH96at81UFKO35ueupjsp5p00dFMDW+ZIcdOz6naZhkJ0dI+tCjSmxr2eIyG21cwUDHtDzRct6g1cAwzFDGYl92pB5gaOp5sa0+cJZgi4OmIrVKZAc5Ywzue1hmBOyXs8uEY4ysoAvThQwzGkZejsApAHpF8fEAizN+HVLR46PYEMkcXNHoHwpGORIkz1LEk0pFXBo46CEPGNXOy8YV8q5CWpjhUjOkZYCfiKRG+8mHtJiNlJ1KyVeYAUSnhRjIq92xeMgk9D4xIZJY2bjgCV2tLSOKpTGgtDmik9E8oOVTizN4RH3VoWUxT2k85ab6owMAgMtGA1noziXZCjKFdQBabzjUIrRz17p2NOX/tguk+jU6SxKUgBrVCdK7DQ3tTM+o0lxAsjJPBxMkKsejW6A0KnHGYgd2shDHddzf8eVDnMXKYwhXxjrqQgR7U5Na75RjOxyIGYXSwWfT8ehKh1raoZm5pu9CkVZIHsukiObV1uSG6vj9v5ELX6aLRy0+3Gbk7bObZD5W7ws7jJOMV2qKCbu2EvOXeed/PMEqJBRoZaJqHtfBoD8QEcGQ3Z6IyOeFdmCDU65dQ6owS1AFfmOaR3TgRosClHLY8E9QgyQ0uz43AxarkYdbHagcjeuS6mTK2YcpqKvV5xtwiOrZ6QsvvHMvDI0BpItK+1VnDEB7wBdBUSjfJHqtQXgUv3rjmM6J3ba4kPyj74XxHLqKQYqqLjpfsktwjUnn5obA0mzmu/m3fTocNz14l1x7vuIDkAXvcq1yPF8vc2FoW1rbd5nm9OjB/Wbo8n0J/NZnMcdUasIgsS1fcaGhKCZ5PA+YRxfQe+jEAzQSbvwRc3/8fHWWUBMhDPl4tYhiQ6KqSZHDGhUwLzH0fayL6mvGr8q0U9JvXKu2zRfaWrE3HujsZoSxxkYxND4fqHNLlG8qV8PxPSa0xfyptz3csU6XoYS/ppf9Ca2Px8Me9UuvvP3X/u/vM7HAY=;" parent="I5x2yZ8Cwxs2vXnTlp7P-21" vertex="1">
          <mxGeometry x="366" y="140" width="48.74" height="48.74" as="geometry" />
        </mxCell>
        <mxCell id="I5x2yZ8Cwxs2vXnTlp7P-47" value="Data Warehouse" style="text;strokeColor=none;fillColor=none;html=1;fontSize=24;fontStyle=1;verticalAlign=middle;align=center;" parent="I5x2yZ8Cwxs2vXnTlp7P-20" vertex="1">
          <mxGeometry x="205.9995348837209" width="121.78779069767442" height="24.043715846994534" as="geometry" />
        </mxCell>
        <mxCell id="I5x2yZ8Cwxs2vXnTlp7P-48" value="" style="group" parent="I5x2yZ8Cwxs2vXnTlp7P-20" vertex="1" connectable="0">
          <mxGeometry x="5" y="-9.617486338797814" width="154" height="36.0655737704918" as="geometry" />
        </mxCell>
        <mxCell id="I5x2yZ8Cwxs2vXnTlp7P-49" value="Snowflake" style="text;html=1;align=center;verticalAlign=middle;resizable=0;points=[];autosize=1;strokeColor=none;fillColor=none;fontSize=20;fontStyle=2" parent="I5x2yZ8Cwxs2vXnTlp7P-48" vertex="1">
          <mxGeometry x="29" y="4.007285974499089" width="120" height="40" as="geometry" />
        </mxCell>
        <mxCell id="I5x2yZ8Cwxs2vXnTlp7P-50" value="" style="shape=image;html=1;verticalAlign=top;verticalLabelPosition=bottom;labelBackgroundColor=#ffffff;imageAspect=0;aspect=fixed;image=https://cdn4.iconfinder.com/data/icons/free-line-christmas-icons/24/Snowflake-128.png" parent="I5x2yZ8Cwxs2vXnTlp7P-20" vertex="1">
          <mxGeometry y="-12.021857923497267" width="28.051001821493625" height="28.051001821493625" as="geometry" />
        </mxCell>
        <mxCell id="I5x2yZ8Cwxs2vXnTlp7P-55" value="" style="image;aspect=fixed;html=1;points=[];align=center;fontSize=12;image=img/lib/azure2/general/Folder_Blank.svg;" parent="1" vertex="1">
          <mxGeometry x="350" y="341" width="64.07" height="52" as="geometry" />
        </mxCell>
        <mxCell id="I5x2yZ8Cwxs2vXnTlp7P-56" value="" style="shape=image;html=1;verticalAlign=top;verticalLabelPosition=bottom;labelBackgroundColor=#ffffff;imageAspect=0;aspect=fixed;image=https://cdn2.iconfinder.com/data/icons/simple-files/128/csv1.png" parent="1" vertex="1">
          <mxGeometry x="364.03" y="354" width="36" height="36" as="geometry" />
        </mxCell>
        <mxCell id="I5x2yZ8Cwxs2vXnTlp7P-58" value="ERP" style="text;html=1;align=center;verticalAlign=middle;whiteSpace=wrap;rounded=0;" parent="1" vertex="1">
          <mxGeometry x="352.03" y="390" width="60" height="30" as="geometry" />
        </mxCell>
        <mxCell id="I5x2yZ8Cwxs2vXnTlp7P-65" value="" style="shape=image;verticalLabelPosition=bottom;labelBackgroundColor=default;verticalAlign=top;aspect=fixed;imageAspect=0;image=data:image/webp,UklGRlgFAABXRUJQVlA4TEwFAAAvK8FKEEdAEEBS48ywv9YaBtlG6h3M+ds8zhtkG6nncDDnD/ZPkG0zf6lvZA+g2/80SrkruuFVAh1t/+O2EazNLEXSBxBlHWA9wHoAVZLLZGYIssyqpORsfHxuh8T/9/8BcJdHEf2HaNtKUOmIy0U2DKaZ2OsHzDuV7v5z95+7//w+xPeqTUicf9jXaDhX9i0lPA9vSSTU1naEdtlsGwefbJd2TLts9hrJsb6oKW0/JXGULPnudDCKemcrWdnacfA01p0Smn+PwfPBSqIb9TGptRUFz1IKnkrklihyVBVWTi3ekVFVNJYi3y3AJHggYWR7iWLuVhpobJSAIlqITzlbVKAc1/SN0sIzFn9dsDu4WTDnSbXUKIbEIts7r0yWEimtVhq0D0lH52nqYpGmTBoY+6IrJqSj6Ruuo1wMjk1UlyshHf2F4yibUi+VH32Zpk7ylM8nBbeulH6YCWQeOCuwLe5YEiaLlWBULxViNUROWSpQWrWUgNUA2f26DVeyUaWBD4BVf6iOyhirFOg+TALCMV8hlGo5Aw+U0NilGJ+UtNFytmqR1ymRYCq1iH6ZWCi1WDEyjobGctMkGkzFJYmHkkpr4uETV4+IM1cPGp8VJgR2IxYfmDXqCKFYDzW44oj1kEIThL7rt3mjQPDOiZAGXlRl7l9sHMG7NYMyAD13NmgII3m3J/DJv9Wl0KIRzEzwbqjn7L8mE9jD5AIrGA8VmhlIoEBZplIa6il916RimoPkIisUZcVrTaxZyqQicBqB6CoupiHW5N4YqDEW2sqveaTeWOmpkH1gpKDohZpinrlVOmNjkIKgH96at81UFKO35ueupjsp5p00dFMDW+ZIcdOz6naZhkJ0dI+tCjSmxr2eIyG21cwUDHtDzRct6g1cAwzFDGYl92pB5gaOp5sa0+cJZgi4OmIrVKZAc5Ywzue1hmBOyXs8uEY4ysoAvThQwzGkZejsApAHpF8fEAizN+HVLR46PYEMkcXNHoHwpGORIkz1LEk0pFXBo46CEPGNXOy8YV8q5CWpjhUjOkZYCfiKRG+8mHtJiNlJ1KyVeYAUSnhRjIq92xeMgk9D4xIZJY2bjgCV2tLSOKpTGgtDmik9E8oOVTizN4RH3VoWUxT2k85ab6owMAgMtGA1noziXZCjKFdQBabzjUIrRz17p2NOX/tguk+jU6SxKUgBrVCdK7DQ3tTM+o0lxAsjJPBxMkKsejW6A0KnHGYgd2shDHddzf8eVDnMXKYwhXxjrqQgR7U5Na75RjOxyIGYXSwWfT8ehKh1raoZm5pu9CkVZIHsukiObV1uSG6vj9v5ELX6aLRy0+3Gbk7bObZD5W7ws7jJOMV2qKCbu2EvOXeed/PMEqJBRoZaJqHtfBoD8QEcGQ3Z6IyOeFdmCDU65dQ6owS1AFfmOaR3TgRosClHLY8E9QgyQ0uz43AxarkYdbHagcjeuS6mTK2YcpqKvV5xtwiOrZ6QsvvHMvDI0BpItK+1VnDEB7wBdBUSjfJHqtQXgUv3rjmM6J3ba4kPyj74XxHLqKQYqqLjpfsktwjUnn5obA0mzmu/m3fTocNz14l1x7vuIDkAXvcq1yPF8vc2FoW1rbd5nm9OjB/Wbo8n0J/NZnMcdUasIgsS1fcaGhKCZ5PA+YRxfQe+jEAzQSbvwRc3/8fHWWUBMhDPl4tYhiQ6KqSZHDGhUwLzH0fayL6mvGr8q0U9JvXKu2zRfaWrE3HujsZoSxxkYxND4fqHNLlG8qV8PxPSa0xfyptz3csU6XoYS/ppf9Ca2Px8Me9UuvvP3X/u/vM7HAY=;" parent="1" vertex="1">
          <mxGeometry x="665" y="250" width="46" height="46" as="geometry" />
        </mxCell>
      </root>
    </mxGraphModel>
  </diagram>
</mxfile>
